True Romance (1993) Unrated. Directors cut-BRRip-720p-Xvid-ToPKaT


Clarence and Alabama are newlyweds who acquire an unexpected wedding present. Unknown to the blissfully happy couple, ruthless gangsters are on their tail, determined to reclaim their lost property


Christian Slater ... Clarence Worley
Patricia Arquette ... Alabama Whitman
Dennis Hopper ... Clifford Worley
Val Kilmer ... Mentor
Gary Oldman ... Drexl Spivey
Brad Pitt ... Floyd - Dick's Roommate
Christopher Walken ... Vincenzo Coccotti
Bronson Pinchot ... Elliot Blitzer
Samuel L. Jackson ... Big Don
Michael Rapaport ... Dick Ritchie
Saul Rubinek ... Lee Donowitz
Conchata Ferrell ... Mary Louise Ravencroft
James Gandolfini ... Virgil
Anna Levine ... Lucy (as Anna Thomson)
Frank Adonis ... Frankie


Director: Tony Scott
Writer: Quentin Tarantino (written by)
Genre: Action | Crime | Romance | Thriller
MPAA: Rated R for strong violence and language, and for sexuality and drug use.
Runtime: 2:01:01 (unrated director's cut)
Country: USA
Language: English | Italian | Hardcoded English Subs For Key Non-English Parts
Color: Color
Company: Morgan Creek Production 

                                  ................................................................

Source==True.Romance.1993.720p.BluRay.x264-SiNNERS

Format                           : AVI
Format/Info                      : Audio Video Interleave
Format profile                   : OpenDML
File size                        : 2.88 GiB
Duration                         : 2h 1mn
Overall bit rate                 : 3 403 Kbps
Writing application              : VirtualDubMod 1.5.10.2 (build 2542/release)
Writing library                  : VirtualDubMod build 2542/release

Video
ID                               : 0
Format                           : MPEG-4 Visual
Format profile                   : Advanced Simple@L5
Format settings, BVOP            : Yes
Format settings, QPel            : Yes
Format settings, GMC             : No warppoints
Format settings, Matrix          : Custom
Codec ID                         : XVID
Codec ID/Hint                    : XviD
Duration                         : 2h 1mn
Bit rate                         : 2 753 Kbps
Width                            : 1 280 pixels
Height                           : 528 pixels
Display aspect ratio             : 2.40:1
Frame rate                       : 23.976 fps
Resolution                       : 8 bits
Colorimetry                      : 4:2:0
Scan type                        : Progressive
Bits/(Pixel*Frame)               : 0.170
Stream size                      : 2.33 GiB (81%)
Writing library                  : XviD 1.2.1 (UTC 2008-12-04)

Audio
ID                               : 1
Format                           : AC-3
Format/Info                      : Audio Coding 3
Codec ID                         : 2000
Duration                         : 2h 1mn
Bit rate mode                    : Constant
Bit rate                         : 640 Kbps
Channel(s)                       : 6 channels
Channel positions                : Front: L C R, Surround: L R, LFE
Sampling rate                    : 48.0 KHz
Stream size                      : 554 MiB (19%)
Alignment                        : Split accross interleaves
Interleave, duration             : 42 ms (1.00 video frame)
Interleave, preload duration     : 500 ms
